<svg xmlns="http://www.w3.org/2000/svg" viewBox="0 0 24 24" width="100%" height="100%">
  <rect width="24" height="24" rx="5" fill="#000000"/>
  <path fill="#25F4EE" d="M16.6 5.82s.51.5 0 0A4.278 4.278 0 0 1 15.54 3h-3.09v12.4a2.592 2.592 0 0 1-2.59 2.5 2.536 2.536 0 0 1-2.55-2.6 2.572 2.572 0 0 1 2.55-2.6c.38 0 .74.08 1.06.23V9.75a5.727 5.727 0 0 0-1.06-.1 5.672 5.672 0 0 0-5.65 5.66 5.672 5.672 0 0 0 5.65 5.66 5.707 5.707 0 0 0 5.69-5.66V8.69a7.483 7.483 0 0 0 4.19 1.25v-3.1c-.81 0-1.63-.35-2.18-1.02z" opacity="0.8"/>
  <path fill="#FE2C55" d="M17.4 6.62s.51.5 0 0A4.278 4.278 0 0 1 16.34 3.8h-3.09v12.4a2.592 2.592 0 0 1-2.59 2.5 2.536 2.536 0 0 1-2.55-2.6 2.572 2.572 0 0 1 2.55-2.6c.38 0 .74.08 1.06.23v-3.18a5.727 5.727 0 0 0-1.06-.1 5.672 5.672 0 0 0-5.65 5.66 5.672 5.672 0 0 0 5.65 5.66 5.707 5.707 0 0 0 5.69-5.66V9.49a7.483 7.483 0 0 0 4.19 1.25v-3.1c-.81 0-1.63-.35-2.18-1.02z" opacity="0.8"/>
  <path fill="#FFFFFF" d="M17 6.22s.51.5 0 0A4.278 4.278 0 0 1 15.94 3.4h-3.09v12.4a2.592 2.592 0 0 1-2.59 2.5 2.536 2.536 0 0 1-2.55-2.6 2.572 2.572 0 0 1 2.55-2.6c.38 0 .74.08 1.06.23v-3.18a5.727 5.727 0 0 0-1.06-.1 5.672 5.672 0 0 0-5.65 5.66 5.672 5.672 0 0 0 5.65 5.66 5.707 5.707 0 0 0 5.69-5.66V9.09a7.483 7.483 0 0 0 4.19 1.25v-3.1c-.81 0-1.63-.35-2.18-1.02z"/>
</svg>
